<svg xmlns="http://www.w3.org/2000/svg" viewBox="90 120 390 160" role="img" aria-label="Bybit">
  <title>Bybit</title>
  <path fill="#F7A600" d="M356.5848 140h18.5959v92.5117h-18.5959z"/>
  <g fill="#17181E" fill-rule="nonzero" transform="matrix(4.13793 0 0 4.13793 100 127.586)">
    <path d="M9.634 31.998H0V9.641h9.247c4.494 0 7.112 2.449 7.112 6.28 0 2.48-1.682 4.083-2.846 4.617 1.39.627 3.168 2.04 3.168 5.024 0 4.175-2.94 6.436-7.047 6.436zm-.743-18.462H4.494v5.149h4.397c1.907 0 2.974-1.036 2.974-2.575 0-1.538-1.067-2.574-2.974-2.574zm.291 9.074H4.494v5.496h4.688c2.037 0 3.005-1.256 3.005-2.764 0-1.507-.97-2.732-3.005-2.732z"/>
    <path d="M30.388 22.829v9.169h-4.462v-9.169l-6.919-13.188h4.882l4.3 9.012 4.235-9.012h4.881z"/>
    <path d="M50.046 31.998h-9.634V9.641h9.246c4.494 0 7.113 2.449 7.113 6.28 0 2.48-1.682 4.083-2.846 4.617 1.389.627 3.168 2.04 3.168 5.024 0 4.175-2.941 6.436-7.047 6.436zm-.743-18.462h-4.397v5.149h4.397c1.907 0 2.974-1.036 2.974-2.575 0-1.538-1.067-2.574-2.974-2.574zm.29 9.074h-4.687v5.496h4.687c2.038 0 3.006-1.256 3.006-2.764 0-1.507-.968-2.732-3.006-2.732z"/>
    <path d="M80.986 13.536v18.464h-4.494V13.536h-6.013V9.641h16.521v3.895z"/>
  </g>
</svg>
